<?xml version="1.0" encoding="UTF-8"?>
<svg width="448px" height="512px" viewBox="0 0 448 512" version="1.1" xmlns="http://www.w3.org/2000/svg" xmlns:xlink="http://www.w3.org/1999/xlink">
    <!-- Generator: Sketch 61.2 (89653) - https://sketch.com -->
    <title>Shape</title>
    <desc>Created with Sketch.</desc>
    <g id="Page-1" stroke="none" stroke-width="1" fill="none" fill-rule="evenodd">
        <g id="trash-alt-regular" fill="#FFFFFF" fill-rule="nonzero">
            <path d="M268,416 L292,416 C298.627417,416 304,410.627417 304,404 L304,188 C304,181.372583 298.627417,176 292,176 L268,176 C261.372583,176 256,181.372583 256,188 L256,404 C256,410.627417 261.372583,416 268,416 Z M432,79.9999945 L349.59,79.9999945 L315.59,23.3 C306.910514,8.83753478 291.277018,-0.00803250895 274.41,-5.46597731e-06 L173.59,-5.46597731e-06 C156.73011,-5.46597731e-06 141.105818,8.84364997 132.43,23.3 L98.41,79.9999945 L16,79.9999945 C7.163444,79.9999945 0,87.163444 0,95.9999945 L0,111.999995 C0,120.836556 7.163444,127.999995 16,127.999995 L32,127.999995 L32,463.999995 C32,490.509668 53.490332,511.999995 80,511.999995 L368,511.999995 C394.509668,511.999995 416,490.509668 416,463.999995 L416,127.999995 L432,127.999995 C440.836556,127.999995 448,120.836556 448,111.999995 L448,95.9999945 C448,87.163444 440.836556,79.9999945 432,79.9999945 Z M171.84,50.91 C172.927844,49.0993228 174.887674,47.9940697 177,47.9999763 L271,47.9999763 C273.108764,47.9975902 275.063987,49.1023865 276.15,50.91 L293.61,80 L154.39,80 L171.84,50.91 Z M368,464 L80,464 L80,128 L368,128 L368,464 Z M156,416 L180,416 C186.627417,416 192,410.627417 192,404 L192,188 C192,181.372583 186.627417,176 180,176 L156,176 C149.372583,176 144,181.372583 144,188 L144,404 C144,410.627417 149.372583,416 156,416 Z" id="Shape"></path>
        </g>
    </g>
</svg>