<?xml version="1.0" encoding="UTF-8"?>
<svg width="150px" height="42px" viewBox="0 0 150 42" version="1.1" xmlns="http://www.w3.org/2000/svg" xmlns:xlink="http://www.w3.org/1999/xlink">
    <!-- Generator: Sketch 61.2 (89653) - https://sketch.com -->
    <title>logo</title>
    <desc>Created with Sketch.</desc>
    <defs>
        <polygon id="path-1" points="0.209649161 0.24378671 24.6586937 0.24378671 24.6586937 32.076067 0.209649161 32.076067"></polygon>
        <polygon id="path-3" points="0 0.196891627 22.0357943 0.196891627 22.0357943 32.166302 0 32.166302"></polygon>
    </defs>
    <g id="Page-1" stroke="none" stroke-width="1" fill="none" fill-rule="evenodd">
        <g id="logo" transform="translate(0.000000, -11.000000)">
            <rect id="Rectangle" x="0" y="0" width="150" height="65"></rect>
            <g id="punchh_1" transform="translate(0.000000, 11.000000)">
                <g id="Group-3" transform="translate(98.468271, 0.000000)">
                    <g id="Fill-1-Clipped">
                        <mask id="mask-2" fill="white">
                            <use xlink:href="#path-1"></use>
                        </mask>
                        <g id="path-1"></g>
                        <path d="M24.6586937,32.076067 L14.3280007,32.076067 L14.3280007,20.9329829 C14.3280007,19.9448566 13.5316039,19.144085 12.5481831,19.144085 C11.5647622,19.144085 10.7678038,19.9448566 10.7678038,20.9329829 L10.7678038,32.076067 L0.227621444,32.076067 C0.217512035,32.076067 0.209649161,32.0676022 0.209649161,32.0580088 L0.209649161,5.56651963 C0.209649161,2.5468375 2.71172794,0.114613613 5.74679724,0.248922032 C8.60607512,0.375894276 10.8048716,2.85834274 10.8048716,5.73355868 L10.8048716,9.79046298 L13.5686718,9.79046298 C19.6837411,9.79046298 24.6586937,14.7892192 24.6586937,20.9329829 L24.6586937,32.076067 Z" id="Fill-1" fill="#F6931D" fill-rule="nonzero" mask="url(#mask-2)"></path>
                    </g>
                </g>
                <path d="M150,21.1361472 C150,15.0540888 144.991308,10.1059924 138.834072,10.1059924 L136.050649,10.1059924 L136.050649,6.09020278 C136.050649,3.24412567 133.83669,0.786835539 130.957696,0.661708694 C127.902264,0.528761422 125.382932,2.93633597 125.382932,5.92541518 L125.382932,32.1478681 C125.382932,32.1579229 125.390284,32.166302 125.400463,32.166302 L136.013325,32.166302 L136.013325,21.1361472 C136.013325,20.1580351 136.816345,19.3653789 137.805981,19.3653789 C138.795618,19.3653789 139.598637,20.1580351 139.598637,21.1361472 L139.598637,32.166302 L150,32.166302 L150,21.1361472 Z" id="Fill-4" fill="#F6931D" fill-rule="nonzero"></path>
                <path d="M82.4265565,21.0065646 C82.4265565,20.0169616 83.2300018,19.2149932 84.2214276,19.2149932 L95.1859956,19.2149932 L95.1859956,9.84682713 L84.7027021,9.84682713 C78.5378573,9.84682713 73.5229759,14.8530539 73.5229759,21.0065646 C73.5229759,27.15951 78.5384235,32.166302 84.7032683,32.166302 L95.1859956,32.166302 L95.1859956,22.7981359 L84.2214276,22.7981359 C83.2300018,22.7981359 82.4265565,21.9956024 82.4265565,21.0065646" id="Fill-6" fill="#F6931D" fill-rule="nonzero"></path>
                <path d="M71.2253829,21.0059994 C71.2253829,14.8524888 66.2190295,9.84682713 60.0653629,9.84682713 C53.9116966,9.84682713 48.9059081,14.8530539 48.9059081,21.0065646 L48.9059081,32.166302 L58.2737462,32.166302 L58.2737462,21.0065646 C58.2737462,20.0169616 59.0757348,19.2149932 60.0653629,19.2149932 C61.054991,19.2149932 61.8569796,20.0169616 61.8569796,21.0065646 L61.8569796,32.166302 L71.2253829,32.166302 L71.2253829,21.0059994 Z" id="Fill-8" fill="#F6931D" fill-rule="nonzero"></path>
                <path d="M37.5687046,9.84682713 L37.5687046,21.0068472 C37.5687046,21.99591 36.766716,22.7984638 35.7770879,22.7984638 C34.7874597,22.7984638 33.9854711,21.99591 33.9854711,21.0068472 L33.9854711,9.84682713 L24.6170678,9.84682713 L24.6170678,21.0074123 C24.6170678,27.1605136 29.6234214,32.166302 35.7770879,32.166302 C41.9307542,32.166302 46.9365427,27.1599484 46.9365427,21.0068472 L46.9365427,9.84682713 L37.5687046,9.84682713 Z" id="Fill-10" fill="#F6931D" fill-rule="nonzero"></path>
                <g id="Group-14" transform="translate(0.000000, 9.846827)">
                    <g id="Fill-12-Clipped">
                        <mask id="mask-4" fill="white">
                            <use xlink:href="#path-3"></use>
                        </mask>
                        <g id="path-3"></g>
                        <path d="M11.0177856,0.196891627 L-0.000223194748,0.196891627 L-0.000223194748,9.55051365 L11.0177856,9.55051365 C11.9948206,9.55051365 12.7866039,10.3518496 12.7866039,11.3399758 C12.7866039,12.3275377 11.9948206,13.1288737 11.0177856,13.1288737 L-0.000223194748,13.1288737 L-0.000223194748,26.67653 C-0.000223194748,29.5523103 2.1842954,32.0341944 5.02500656,32.1611667 C8.04036761,32.2954751 10.5261991,29.8626868 10.5261991,26.843569 L10.5261991,22.4824957 L11.0183435,22.4824957 C17.0937046,22.4824957 22.0357943,17.4837395 22.0357943,11.3399758 C22.0357943,5.19564781 17.0931466,0.196891627 11.0177856,0.196891627" id="Fill-12" fill="#F6931D" fill-rule="nonzero" mask="url(#mask-4)"></path>
                    </g>
                </g>
            </g>
        </g>
    </g>
</svg>